<svg width="48" height="48" viewBox="0 0 48 48" fill="none" xmlns="http://www.w3.org/2000/svg">
<rect x="1" y="1" width="46" height="46" rx="23" fill="#1B8442"/>
<rect x="1" y="1" width="46" height="46" rx="23" stroke="#27B654" stroke-width="2"/>
<path d="M21.99 34.78C21.39 34.78 20.82 34.48 20.43 33.95L19.23 32.35C19.23 32.36 19.18 32.33 19.16 32.33H18.79C15.37 32.33 13.25 31.4 13.25 26.79V22.79C13.25 18.58 15.82 17.48 17.98 17.29C18.22 17.26 18.5 17.25 18.79 17.25H25.19C28.81 17.25 30.73 19.17 30.73 22.79V26.79C30.73 27.08 30.72 27.36 30.68 27.63C30.5 29.76 29.4 32.33 25.19 32.33H24.79L23.55 33.95C23.16 34.48 22.59 34.78 21.99 34.78ZM18.79 18.75C18.56 18.75 18.34 18.76 18.13 18.78C15.81 18.98 14.75 20.25 14.75 22.79V26.79C14.75 30.22 15.81 30.83 18.79 30.83H19.19C19.64 30.83 20.15 31.08 20.43 31.44L21.63 33.05C21.85 33.35 22.13 33.35 22.35 33.05L23.55 31.45C23.84 31.06 24.3 30.83 24.79 30.83H25.19C27.73 30.83 29 29.76 29.19 27.48C29.22 27.24 29.23 27.02 29.23 26.79V22.79C29.23 20 27.98 18.75 25.19 18.75H18.79Z" fill="white"/>
<path d="M21.9922 26.1914C21.4322 26.1914 20.9922 25.7414 20.9922 25.1914C20.9922 24.6414 21.4422 24.1914 21.9922 24.1914C22.5422 24.1914 22.9922 24.6414 22.9922 25.1914C22.9922 25.7414 22.5522 26.1914 21.9922 26.1914Z" fill="white"/>
<path d="M25.1875 26.1914C24.6275 26.1914 24.1875 25.7414 24.1875 25.1914C24.1875 24.6414 24.6375 24.1914 25.1875 24.1914C25.7375 24.1914 26.1875 24.6414 26.1875 25.1914C26.1875 25.7414 25.7375 26.1914 25.1875 26.1914Z" fill="white"/>
<path d="M18.7969 26.1914C18.2369 26.1914 17.7969 25.7414 17.7969 25.1914C17.7969 24.6414 18.2469 24.1914 18.7969 24.1914C19.3469 24.1914 19.7969 24.6414 19.7969 25.1914C19.7969 25.7414 19.3469 26.1914 18.7969 26.1914Z" fill="white"/>
<path d="M29.9396 28.29C29.7396 28.29 29.5396 28.21 29.3996 28.06C29.2396 27.9 29.1697 27.67 29.1997 27.45C29.2297 27.24 29.2396 27.02 29.2396 26.79V22.79C29.2396 20 27.9897 18.75 25.1997 18.75H18.7996C18.5696 18.75 18.3497 18.76 18.1397 18.78C17.9197 18.81 17.6896 18.73 17.5296 18.58C17.3696 18.42 17.2796 18.2 17.2996 17.98C17.4796 15.82 18.5896 13.25 22.7996 13.25H29.1997C32.8197 13.25 34.7396 15.17 34.7396 18.79V22.79C34.7396 27 32.1697 28.1 30.0097 28.29C29.9797 28.29 29.9596 28.29 29.9396 28.29ZM18.9197 17.25H25.1896C28.8096 17.25 30.7297 19.17 30.7297 22.79V26.66C32.4297 26.24 33.2297 24.99 33.2297 22.79V18.79C33.2297 16 31.9796 14.75 29.1896 14.75H22.7897C20.5897 14.75 19.3497 15.55 18.9197 17.25Z" fill="white"/>
</svg>
