<svg width="540" height="300" viewBox="0 0 540 300" fill="none" xmlns="http://www.w3.org/2000/svg">
<path opacity="0.8" d="M62.0698 15.1358C60.99 7.77578 66.6578 1.16797 74.0506 1.16797H421.63C427.635 1.16797 432.733 5.5968 433.611 11.5755L465.448 228.578C466.527 235.938 460.86 242.546 453.467 242.546H105.888C99.8823 242.546 94.784 238.117 93.9068 232.139L62.0698 15.1358Z" fill="url(#paint0_linear_5007_119623)"/>
<path d="M529.73 284.175C529.73 284.175 539.57 284.175 539.57 274.254C539.57 264.333 529.73 264.333 529.73 264.333L391.19 264.333C391.19 264.333 381.35 264.333 381.35 274.254C381.35 284.175 391.19 284.175 391.19 284.175L529.73 284.175Z" fill="url(#paint1_linear_5007_119623)"/>
<path opacity="0.15" d="M538.791 269.814C536.46 268.769 534.13 268.769 534.13 268.769L395.59 268.769C395.59 268.769 385.75 268.769 385.75 278.69C385.75 280.518 386.138 281.954 386.527 283.129C383.937 281.823 381.348 279.474 381.348 274.252C381.348 264.331 391.188 264.331 391.188 264.331L529.727 264.331C529.727 264.331 536.331 264.201 538.791 269.814Z" fill="white"/>
<path opacity="0.8" d="M514.841 264.209L406.081 264.209L413.462 234.576L420.712 204.813L428.222 175.051L435.602 145.418L442.853 115.655L445.572 104.82L475.351 104.82L478.07 115.655L485.321 145.418L492.701 175.051L500.211 204.813L507.461 234.576L514.841 264.209Z" fill="url(#paint2_linear_5007_119623)"/>
<path opacity="0.15" d="M456.577 104.69L417.087 264.339L406.081 264.209L445.572 104.82L456.577 104.69Z" fill="white"/>
<path d="M514.844 264.209L406.084 264.209L413.464 234.577L507.464 234.577L514.844 264.209Z" fill="url(#paint3_linear_5007_119623)"/>
<path d="M500.215 204.807L420.716 204.807L428.226 175.044L492.705 175.044L500.215 204.807Z" fill="url(#paint4_linear_5007_119623)"/>
<path opacity="0.6" fill-rule="evenodd" clip-rule="evenodd" d="M51.889 34.9922C49.9723 34.9922 48.4185 36.5587 48.4185 38.4912V51.6954C48.4185 53.2907 47.3424 54.6685 45.8412 55.1731C44.0739 55.7672 42.3625 56.4845 40.717 57.315C39.3018 58.0293 37.5743 57.8223 36.4553 56.694L27.1926 47.3553C25.8373 45.9889 23.6399 45.9889 22.2846 47.3553L13.2644 56.4495C11.9091 57.816 11.9091 60.0314 13.2644 61.3979L22.5271 70.7365C23.6461 71.8648 23.8515 73.6065 23.143 75.0333C22.3194 76.692 21.608 78.4172 21.0188 80.1987C20.5183 81.7121 19.1518 82.797 17.5694 82.797L4.4705 82.797C2.55379 82.797 1 84.3636 1 86.296L1 99.1572C1 101.09 2.5538 102.656 4.4705 102.656H17.57C19.1523 102.656 20.5188 103.741 21.0194 105.254C21.6087 107.036 22.3204 108.762 23.1443 110.421C23.8529 111.848 23.6476 113.589 22.5285 114.718L13.2678 124.054C11.9125 125.421 11.9125 127.636 13.2678 129.003L22.288 138.097C23.6433 139.463 25.8407 139.463 27.196 138.097L36.4581 128.759C37.5771 127.631 39.3045 127.424 40.7196 128.138C42.3643 128.968 44.0748 129.685 45.8412 130.278C47.3424 130.783 48.4185 132.161 48.4185 133.756V146.96C48.4185 148.892 49.9723 150.459 51.889 150.459H64.6454C66.5621 150.459 68.1159 148.892 68.1159 146.96V133.755C68.1159 132.16 69.1919 130.782 70.6929 130.277C72.459 129.683 74.1693 128.966 75.8137 128.136C77.2289 127.422 78.9564 127.629 80.0755 128.757L89.3389 138.097C90.6942 139.463 92.8916 139.463 94.2469 138.097L103.267 129.003C104.622 127.636 104.622 125.421 103.267 124.054L94.0037 114.715C92.8846 113.587 92.6793 111.845 93.3877 110.418C94.2111 108.76 94.9223 107.035 95.5114 105.254C96.0119 103.741 97.3784 102.656 98.9607 102.656H112.056C113.973 102.656 115.527 101.09 115.527 99.1572V86.296C115.527 84.3636 113.973 82.797 112.056 82.797L98.9613 82.797C97.379 82.797 96.0124 81.7121 95.5119 80.1987C94.923 78.4181 94.2121 76.6938 93.389 75.0359C92.6807 73.6092 92.8861 71.8676 94.0051 70.7394L103.271 61.398C104.626 60.0315 104.626 57.8161 103.271 56.4496L94.2504 47.3554C92.895 45.989 90.6976 45.989 89.3423 47.3554L80.0783 56.6954C78.9592 57.8238 77.2315 58.0308 75.8163 57.3163C74.1711 56.4858 72.4599 55.7684 70.6929 55.1742C69.1919 54.6695 68.1159 53.2918 68.1159 51.6966V38.4912C68.1159 36.5587 66.5621 34.9922 64.6454 34.9922H51.889ZM58.2681 105.777C65.4164 105.777 71.2112 99.9342 71.2112 92.7272C71.2112 85.5202 65.4164 79.6778 58.2681 79.6778C51.1198 79.6778 45.325 85.5202 45.325 92.7272C45.325 99.9342 51.1198 105.777 58.2681 105.777Z" fill="url(#paint5_linear_5007_119623)" stroke="url(#paint6_linear_5007_119623)"/>
<g opacity="0.4">
<path fill-rule="evenodd" clip-rule="evenodd" d="M131.068 107.305C128.859 107.305 127.068 109.096 127.068 111.305V113.31C127.068 114.625 126.161 115.754 124.952 116.269C123.704 116.8 122.23 116.632 121.287 115.657L120.135 114.468C118.563 112.844 115.96 112.844 114.388 114.468L114.187 114.675C112.686 116.226 112.686 118.689 114.187 120.24L115.544 121.641C116.484 122.612 116.651 124.063 116.143 125.315C115.619 126.608 114.424 127.586 113.03 127.586H111.43C109.221 127.586 107.43 129.377 107.43 131.586V132.011C107.43 134.22 109.221 136.011 111.43 136.011H113.031C114.425 136.011 115.619 136.99 116.143 138.281C116.652 139.534 116.485 140.985 115.544 141.956L114.188 143.357C112.686 144.908 112.686 147.371 114.188 148.922L114.388 149.129C115.96 150.753 118.564 150.753 120.136 149.129L121.289 147.938C122.232 146.964 123.705 146.796 124.952 147.327C126.162 147.842 127.068 148.97 127.068 150.284V152.291C127.068 154.5 128.859 156.291 131.068 156.291H131.225C133.434 156.291 135.225 154.5 135.225 152.291V150.282C135.225 148.968 136.131 147.84 137.339 147.325C138.587 146.793 140.06 146.961 141.004 147.936L142.158 149.128C143.73 150.751 146.333 150.751 147.905 149.128L148.106 148.921C149.607 147.37 149.607 144.907 148.106 143.356L146.743 141.949C145.804 140.979 145.637 139.53 146.145 138.279C146.668 136.988 147.861 136.011 149.253 136.011H150.86C153.069 136.011 154.86 134.22 154.86 132.011V131.586C154.86 129.377 153.069 127.586 150.86 127.586H149.254C147.861 127.586 146.668 126.609 146.145 125.318C145.638 124.067 145.805 122.618 146.744 121.648L148.106 120.241C149.608 118.69 149.608 116.227 148.106 114.676L147.906 114.469C146.334 112.846 143.73 112.846 142.158 114.469L141.005 115.66C140.062 116.634 138.588 116.802 137.34 116.271C136.131 115.755 135.225 114.627 135.225 113.313V111.305C135.225 109.096 133.434 107.305 131.225 107.305H131.068ZM131.145 137.334C134.106 137.334 136.506 134.855 136.506 131.797C136.506 128.74 134.106 126.261 131.145 126.261C128.185 126.261 125.785 128.74 125.785 131.797C125.785 134.855 128.185 137.334 131.145 137.334Z" fill="url(#paint7_linear_5007_119623)"/>
</g>
<path opacity="0.8" fill-rule="evenodd" clip-rule="evenodd" d="M62.6642 23.3976H434.727L432.821 10.4076C431.944 4.42886 426.846 3.11651e-05 420.841 3.06358e-05L73.2615 0C65.8687 -6.51576e-07 60.2009 6.60781 61.2807 13.9679L62.6642 23.3976Z" fill="url(#paint8_linear_5007_119623)"/>
<ellipse cx="81.9789" cy="12.8255" rx="4.62734" ry="4.66532" fill="#00141E"/>
<ellipse opacity="0.6" cx="94.7055" cy="12.8255" rx="4.62734" ry="4.66532" fill="#00141E"/>
<ellipse opacity="0.4" cx="107.424" cy="12.8255" rx="4.62734" ry="4.66532" fill="#00141E"/>
<defs>
<linearGradient id="paint0_linear_5007_119623" x1="311.915" y1="238.131" x2="311.915" y2="7.05525" gradientUnits="userSpaceOnUse">
<stop stop-color="#3B7081"/>
<stop offset="1" stop-color="#3B7081" stop-opacity="0"/>
</linearGradient>
<linearGradient id="paint1_linear_5007_119623" x1="510.634" y1="304.757" x2="430.061" y2="224.839" gradientUnits="userSpaceOnUse">
<stop stop-color="#3B7081"/>
<stop offset="1" stop-color="#3B7081"/>
</linearGradient>
<linearGradient id="paint2_linear_5007_119623" x1="528.785" y1="245.958" x2="419.067" y2="137.134" gradientUnits="userSpaceOnUse">
<stop stop-color="#3B7081"/>
<stop offset="1" stop-color="#3B7081" stop-opacity="0"/>
</linearGradient>
<linearGradient id="paint3_linear_5007_119623" x1="427.771" y1="220.152" x2="493.691" y2="285.535" gradientUnits="userSpaceOnUse">
<stop stop-color="#27B654"/>
<stop offset="1" stop-color="#27B654" stop-opacity="0"/>
</linearGradient>
<linearGradient id="paint4_linear_5007_119623" x1="435.088" y1="168.125" x2="486.258" y2="218.878" gradientUnits="userSpaceOnUse">
<stop stop-color="#27B654"/>
<stop offset="1" stop-color="#27B654" stop-opacity="0"/>
</linearGradient>
<linearGradient id="paint5_linear_5007_119623" x1="-43.1699" y1="108.542" x2="426.526" y2="199.863" gradientUnits="userSpaceOnUse">
<stop stop-color="#1CAF4B"/>
<stop offset="0.14877" stop-color="#1CA64E" stop-opacity="0.895419"/>
<stop offset="0.817703" stop-color="#1B5669" stop-opacity="0"/>
</linearGradient>
<linearGradient id="paint6_linear_5007_119623" x1="19.2201" y1="77.9949" x2="85.5159" y2="124.284" gradientUnits="userSpaceOnUse">
<stop stop-color="#2BD05F"/>
<stop offset="1" stop-color="#27B654" stop-opacity="0"/>
</linearGradient>
<linearGradient id="paint7_linear_5007_119623" x1="89.1371" y1="138.507" x2="283.991" y2="175.49" gradientUnits="userSpaceOnUse">
<stop stop-color="#1CAF4B"/>
<stop offset="0.817703" stop-color="#1B5669" stop-opacity="0"/>
</linearGradient>
<linearGradient id="paint8_linear_5007_119623" x1="214.71" y1="4.11741" x2="214.71" y2="219.706" gradientUnits="userSpaceOnUse">
<stop stop-color="#3B7081"/>
<stop offset="1" stop-color="#3B7081" stop-opacity="0"/>
</linearGradient>
</defs>
</svg>
