<svg width="511" height="52" viewBox="0 0 511 52" fill="none" xmlns="http://www.w3.org/2000/svg">
<path d="M80.5414 22.2271L64.6429 6.31512C63.5702 5.24148 62.1643 4.70312 60.7554 4.70312C59.3465 4.70312 57.9406 5.24148 56.8679 6.31512L44.2885 18.9052C43.3961 19.7984 41.9474 19.7984 41.055 18.9052L28.4756 6.31512C27.4029 5.24148 25.997 4.70312 24.5881 4.70312C23.1822 4.70312 21.7733 5.24148 20.7006 6.31512L19.4017 7.61512C19.1786 7.83842 19.1786 8.19936 19.4017 8.42265L42.6687 31.7095L42.6718 31.7064L56.8679 45.9147C57.9406 46.9883 59.3465 47.5267 60.7554 47.5267C62.1643 47.5267 63.5702 46.9883 64.6429 45.9147L80.5414 30.0027C82.6869 27.8584 82.6869 24.3744 80.5414 22.2271ZM71.5836 27.733L62.3722 36.9523C61.4797 37.8455 60.0341 37.8455 59.1417 36.9523L49.9303 27.733C49.0379 26.8398 49.0379 25.393 49.9303 24.4998L59.1417 15.2805C60.0341 14.3874 61.4797 14.3874 62.3722 15.2805L71.5836 24.4998C72.476 25.393 72.476 26.8398 71.5836 27.733Z" fill="white"/>
<path d="M30.5341 32.5949L26.234 36.8986C25.3415 37.7918 23.896 37.7918 23.0035 36.8986L13.7951 27.6824C12.9027 26.7892 12.9027 25.3424 13.7951 24.4492L21.4357 16.8022C21.6588 16.5789 21.6588 16.2179 21.4357 15.9946L16.6344 11.1831C16.4113 10.9598 16.0506 10.9598 15.8275 11.1831L4.84347 22.1765C2.69801 24.3238 2.69801 27.8078 4.84347 29.9551L20.7358 45.861C21.8086 46.9346 23.2144 47.473 24.6203 47.473C26.0261 47.473 27.432 46.9346 28.5047 45.861L39.4888 34.8676C39.7119 34.6443 39.7119 34.2833 39.4888 34.06L38.0249 32.5949C35.9589 30.524 32.6031 30.524 30.5341 32.5949Z" fill="#15AF44"/>
<path d="M429.195 47.5234C414.938 47.5234 410.445 37.5088 410.445 30.2441C410.445 22.9794 414.938 12.9648 429.195 12.9648C443.452 12.9648 447.945 22.9794 447.945 30.2441C447.945 37.5088 443.452 47.5234 429.195 47.5234ZM429.195 39.4604C436.799 39.4604 438.887 34.1197 438.887 30.2441C438.887 26.3686 436.796 21.0279 429.195 21.0279C421.591 21.0279 419.504 26.3686 419.504 30.2441C419.504 34.1197 421.591 39.4604 429.195 39.4604Z" fill="white"/>
<path d="M405.216 23.1852L408.284 18.025C408.44 17.765 408.4 17.4255 408.177 17.2175C405.735 14.9233 402.135 12.9688 397.101 12.9688C382.844 12.9688 378.352 22.9833 378.352 30.248C378.352 37.5097 382.844 47.5273 397.101 47.5273C402.774 47.5273 406.964 44.8662 408.957 42.0949C409.109 41.8807 409.109 41.5902 408.966 41.3699L405.781 36.4055C405.573 36.0843 405.136 36.0078 404.834 36.2403C402.612 37.941 400.259 39.4612 396.334 39.4612C390.381 39.4612 387.41 34.1205 387.41 30.245C387.41 26.3725 389.498 21.0287 397.101 21.0287C400.274 21.0287 402.719 22.24 404.278 23.381C404.589 23.6073 405.02 23.5156 405.216 23.1852Z" fill="white"/>
<path d="M176.25 47.5234C161.993 47.5234 157.5 37.5088 157.5 30.2441C157.5 22.9794 161.993 12.9648 176.25 12.9648C190.507 12.9648 195 22.9794 195 30.2441C195 37.5088 190.507 47.5234 176.25 47.5234ZM176.25 39.4604C183.854 39.4604 185.941 34.1197 185.941 30.2441C185.941 26.3686 183.851 21.0279 176.25 21.0279C168.646 21.0279 166.559 26.3686 166.559 30.2441C166.559 34.1197 168.649 39.4604 176.25 39.4604Z" fill="#15AF44"/>
<path d="M250.258 47.5234C236 47.5234 231.508 37.5088 231.508 30.2441C231.508 22.9794 236 12.9648 250.258 12.9648C264.515 12.9648 269.008 22.9794 269.008 30.2441C269.008 37.5088 264.512 47.5234 250.258 47.5234ZM250.258 39.4604C257.862 39.4604 259.949 34.1197 259.949 30.2441C259.949 26.3686 257.859 21.0279 250.258 21.0279C242.654 21.0279 240.566 26.3686 240.566 30.2441C240.566 34.1197 242.654 39.4604 250.258 39.4604Z" fill="#15AF44"/>
<path d="M128.997 23.1852L132.065 18.025C132.221 17.765 132.182 17.4255 131.958 17.2175C129.517 14.9233 125.916 12.9688 120.883 12.9688C106.625 12.9688 102.133 22.9833 102.133 30.248C102.133 37.5097 106.625 47.5273 120.883 47.5273C126.555 47.5273 130.745 44.8662 132.738 42.0949C132.891 41.8807 132.891 41.5902 132.747 41.3699L129.562 36.4055C129.355 36.0843 128.918 36.0078 128.615 36.2403C126.393 37.941 124.04 39.4612 120.116 39.4612C114.162 39.4612 111.191 34.1205 111.191 30.245C111.191 26.3725 113.279 21.0287 120.883 21.0287C124.055 21.0287 126.5 22.24 128.059 23.381C128.37 23.6073 128.801 23.5156 128.997 23.1852Z" fill="#15AF44"/>
<path d="M226.278 23.1852L229.347 18.025C229.503 17.765 229.463 17.4255 229.24 17.2175C226.798 14.9233 223.198 12.9688 218.164 12.9688C203.907 12.9688 199.414 22.9833 199.414 30.248C199.414 37.5097 203.907 47.5273 218.164 47.5273C223.836 47.5273 228.026 44.8662 230.019 42.0949C230.172 41.8807 230.172 41.5902 230.028 41.3699L226.844 36.4055C226.636 36.0843 226.199 36.0078 225.896 36.2403C223.674 37.941 221.321 39.4612 217.397 39.4612C211.443 39.4612 208.473 34.1205 208.473 30.245C208.473 26.3725 210.56 21.0287 218.164 21.0287C221.336 21.0287 223.781 22.24 225.34 23.381C225.652 23.6073 226.083 23.5156 226.278 23.1852Z" fill="#15AF44"/>
<path d="M146.433 29.628C146.415 30.4417 146.43 43.7567 146.433 46.8737C146.433 47.2346 146.143 47.5222 145.782 47.5222H137.042C136.681 47.5222 136.391 47.2285 136.391 46.8706V30.1939C136.391 23.5593 140.113 13.2695 155.186 12.9727C155.55 12.9666 155.856 13.2664 155.856 13.6304V20.3935C155.856 20.7483 155.578 21.0389 155.223 21.045C152.656 21.1031 146.433 21.773 146.433 29.628Z" fill="#15AF44"/>
<path d="M290.769 12.9698C288.526 12.9698 285.977 13.9273 283.538 15.2364V5.61032C283.538 5.23102 283.214 4.93126 282.835 4.95879L274.094 5.62561C273.755 5.65008 273.492 5.93455 273.492 6.27714V22.5684V44.1515C273.492 44.4207 273.654 44.6593 273.902 44.7571C275.479 45.3873 281.515 47.5284 290.769 47.5284C303.905 47.5284 308.046 37.5138 308.046 30.2491C308.046 22.9844 303.905 12.9698 290.769 12.9698ZM290.259 39.4623C287.004 39.4623 284.883 39.1167 283.538 38.7527V23.5197C284.88 22.2473 287.004 21.0329 290.259 21.0329C297.108 21.0329 298.99 26.3736 298.99 30.2491C298.99 34.1216 297.108 39.4623 290.259 39.4623Z" fill="white"/>
<path d="M367.41 46.1367C367.48 46.4823 367.263 46.828 366.918 46.9044C365.112 47.3082 363.171 47.5254 361.062 47.5254C352.095 47.5254 349.516 41.8635 349.516 37.1346V6.27408C349.516 5.93149 349.778 5.65008 350.118 5.62255L358.858 4.95879C359.237 4.93126 359.561 5.23102 359.561 5.61032V12.3183C359.561 12.6793 359.855 12.9698 360.212 12.9698H365.539C365.9 12.9698 366.19 13.2635 366.19 13.6214V20.3783C366.19 20.7393 365.897 21.0298 365.539 21.0298H360.212C359.852 21.0298 359.561 21.3174 359.561 21.6783C359.561 24.104 359.561 32.6228 359.561 35.0637C359.635 39.7193 361.582 40.5666 365.591 40.123C365.931 40.0863 366.245 40.3066 366.31 40.643L367.41 46.1367Z" fill="white"/>
<path d="M322.114 27.3085C325.289 27.3085 329.928 27.3085 332.991 27.3085C334.763 27.2443 335.784 26.1829 335.784 24.785C335.784 22.6255 333.587 21.0318 331.401 21.0318C328.779 21.0318 323.743 21.7231 322.114 27.3085ZM331.401 12.9688C336.918 12.9688 344.904 16.5048 344.904 24.3292C344.904 30.8262 340.002 34.6436 330.069 34.6436C328.046 34.6436 324.95 34.6436 322.841 34.6436C324.672 39.2624 330.17 40.1739 332.737 40.1739C335.582 40.1739 338.088 39.3266 340.683 38.0083C341.025 37.8339 341.444 37.9869 341.588 38.3417C342.303 40.1005 343 41.8104 343.712 43.557C343.834 43.8598 343.718 44.2177 343.431 44.3798C339.626 46.5393 335.665 47.5824 331.349 47.5243V47.5273C317.092 47.5273 312.648 37.5128 312.648 30.248C312.651 22.9833 317.144 12.9688 331.401 12.9688Z" fill="white"/>
<path d="M374.476 47.5297C376.827 47.5297 378.733 45.622 378.733 43.2688C378.733 40.9155 376.827 39.0078 374.476 39.0078C372.125 39.0078 370.219 40.9155 370.219 43.2688C370.219 45.622 372.125 47.5297 374.476 47.5297Z" fill="white"/>
<path d="M491.985 12.9688C487.089 12.9688 483.106 14.5624 480.304 17.4652C477.498 14.5624 473.519 12.9688 468.623 12.9688C458.583 12.9688 452.352 19.6248 452.352 30.6671V46.8727C452.352 47.2337 452.645 47.5243 453.003 47.5243H460.878C461.239 47.5243 461.529 47.2306 461.529 46.8727V30.2297C461.529 24.7605 463.8 21.0593 468.62 21.0318C473.439 21.0593 475.71 24.7605 475.71 30.2297V30.6671V46.8727C475.71 47.2337 476.004 47.5243 476.361 47.5243H484.237C484.598 47.5243 484.888 47.2306 484.888 46.8727V30.6671V30.2297C484.888 24.7605 487.159 21.0593 491.979 21.0318C496.798 21.0593 499.069 24.7605 499.069 30.2297V46.8727C499.069 47.2337 499.362 47.5243 499.72 47.5243H507.596C507.956 47.5243 508.247 47.2306 508.247 46.8727V30.6671C508.256 19.6248 502.021 12.9688 491.985 12.9688Z" fill="white"/>
</svg>
