<svg width="21" height="20" viewBox="0 0 21 20" fill="none" xmlns="http://www.w3.org/2000/svg">
<g clip-path="url(#clip0_5007_119596)">
<path d="M10.5 20C16.0228 20 20.5 15.5228 20.5 10C20.5 4.47715 16.0228 0 10.5 0C4.97715 0 0.5 4.47715 0.5 10C0.5 15.5228 4.97715 20 10.5 20Z" fill="#F0F0F0"/>
<path d="M2.56645 3.91016C1.78094 4.93215 1.18863 6.11008 0.84375 7.38973H6.04602L2.56645 3.91016Z" fill="#0052B4"/>
<path d="M20.1553 7.38969C19.8104 6.11008 19.2181 4.93215 18.4326 3.91016L14.9531 7.38969H20.1553Z" fill="#0052B4"/>
<path d="M0.84375 12.6094C1.18867 13.889 1.78098 15.0669 2.56645 16.0889L6.0459 12.6094H0.84375Z" fill="#0052B4"/>
<path d="M16.5889 2.06648C15.5669 1.28098 14.389 0.688672 13.1094 0.34375V5.54598L16.5889 2.06648Z" fill="#0052B4"/>
<path d="M4.41406 17.9326C5.43605 18.7181 6.61398 19.3104 7.89359 19.6553V14.4531L4.41406 17.9326Z" fill="#0052B4"/>
<path d="M7.89355 0.34375C6.61395 0.688672 5.43602 1.28098 4.41406 2.06645L7.89355 5.54594V0.34375Z" fill="#0052B4"/>
<path d="M13.1094 19.6553C14.389 19.3104 15.5669 18.7181 16.5889 17.9326L13.1094 14.4531V19.6553Z" fill="#0052B4"/>
<path d="M14.9531 12.6094L18.4326 16.0889C19.2181 15.067 19.8104 13.889 20.1553 12.6094H14.9531Z" fill="#0052B4"/>
<path d="M20.4154 8.69566H11.8044H11.8044V0.0846484C11.3774 0.0290625 10.9421 0 10.5 0C10.0579 0 9.62262 0.0290625 9.19566 0.0846484V8.69559V8.69563H0.584648C0.529063 9.12262 0.5 9.55793 0.5 10C0.5 10.4421 0.529063 10.8774 0.584648 11.3043H9.19559H9.19563V19.9154C9.62262 19.9709 10.0579 20 10.5 20C10.9421 20 11.3774 19.971 11.8043 19.9154V11.3044V11.3044H20.4154C20.4709 10.8774 20.5 10.4421 20.5 10C20.5 9.55793 20.4709 9.12262 20.4154 8.69566Z" fill="#D80027"/>
<path d="M13.1094 12.6094L17.5717 17.0718C17.777 16.8666 17.9727 16.6521 18.1595 16.4298L14.3391 12.6094H13.1094V12.6094Z" fill="#D80027"/>
<path d="M7.89207 12.6094H7.89199L3.42969 17.0717C3.63484 17.2769 3.84934 17.4727 4.07168 17.6595L7.89207 13.839V12.6094Z" fill="#D80027"/>
<path d="M7.89391 7.39215V7.39207L3.43156 2.92969C3.22633 3.13484 3.03055 3.34934 2.84375 3.57168L6.66418 7.39211H7.89391V7.39215Z" fill="#D80027"/>
<path d="M13.1094 7.39004L17.5718 2.92762C17.3666 2.72238 17.1521 2.5266 16.9298 2.33984L13.1094 6.16027V7.39004Z" fill="#D80027"/>
</g>
<defs>
<clipPath id="clip0_5007_119596">
<rect width="20" height="20" fill="white" transform="translate(0.5)"/>
</clipPath>
</defs>
</svg>
