<svg width="190" height="42" viewBox="0 0 190 42" fill="none" xmlns="http://www.w3.org/2000/svg">
<g filter="url(#filter0_b_11231_143881)">
<g filter="url(#filter1_b_11231_143881)">
<rect width="190" height="42" rx="21" fill="#1E77A6" fill-opacity="0.2"/>
<rect x="1" y="1" width="188" height="40" rx="20" stroke="#1E77A6" stroke-opacity="0.4" stroke-width="2"/>
<path d="M31.3957 24.1787C31.7827 24.5667 32 25.0924 32 25.6404C32 26.1885 31.7827 26.7142 31.3957 27.1022L30.7867 27.8034C25.3171 33.0375 12.0095 19.7332 17.1646 14.2474L17.9318 13.5796C18.3205 13.2035 18.8415 12.9953 19.3823 13.0001C19.9232 13.0048 20.4405 13.2221 20.8225 13.605C20.8425 13.6257 22.0799 15.2337 22.0799 15.2337C22.4469 15.6193 22.6513 16.1315 22.6506 16.6639C22.6498 17.1963 22.444 17.7079 22.0759 18.0925L21.3019 19.0654C21.7299 20.1053 22.359 21.0503 23.1533 21.8462C23.9475 22.6421 24.8912 23.2732 25.9301 23.7032L26.9084 22.9252C27.2929 22.5573 27.8044 22.3516 28.3366 22.3508C28.8688 22.3501 29.3808 22.5544 29.7664 22.9212C29.7664 22.9212 31.375 24.1586 31.3957 24.1787ZM30.4775 25.1496C30.4775 25.1496 28.8796 23.9196 28.8589 23.8995C28.7213 23.7631 28.5354 23.6866 28.3417 23.6866C28.148 23.6866 27.9621 23.7631 27.8245 23.8995C27.8065 23.9169 26.4597 24.9907 26.4597 24.9907C26.3689 25.0629 26.2609 25.1103 26.1462 25.1281C26.0316 25.1459 25.9143 25.1335 25.8059 25.0922C24.4592 24.5914 23.236 23.8067 22.2193 22.7913C21.2027 21.776 20.4163 20.5538 19.9137 19.2077C19.8697 19.0982 19.8555 18.9791 19.8725 18.8624C19.8895 18.7457 19.9371 18.6356 20.0105 18.5432C20.0105 18.5432 21.0836 17.1963 21.1016 17.1783C21.238 17.0407 21.3145 16.8548 21.3145 16.6611C21.3145 16.4674 21.238 16.2815 21.1016 16.1439C21.0816 16.1239 19.8516 14.5252 19.8516 14.5252C19.712 14.3999 19.5299 14.3327 19.3424 14.3374C19.1549 14.3422 18.9763 14.4184 18.8433 14.5506L18.076 15.2183C14.3072 19.7473 25.8413 30.6428 29.8098 26.8925L30.4188 26.1914C30.5623 26.0596 30.6488 25.877 30.6598 25.6824C30.6708 25.4879 30.6054 25.2967 30.4775 25.1496Z" fill="white"/>
<path d="M46.052 21.412C46.052 22.436 46.2 23.384 46.496 24.256C46.792 25.128 47.228 25.936 47.804 26.68L47.012 27.22C46.388 26.46 45.884 25.588 45.5 24.604C45.124 23.612 44.936 22.548 44.936 21.412C44.936 20.276 45.124 19.216 45.5 18.232C45.884 17.24 46.388 16.364 47.012 15.604L47.804 16.144C47.228 16.888 46.792 17.696 46.496 18.568C46.2 19.44 46.052 20.388 46.052 21.412ZM48.4906 20.836C48.4906 19.444 48.7346 18.372 49.2226 17.62C49.7186 16.868 50.4026 16.492 51.2746 16.492C52.1466 16.492 52.8266 16.868 53.3146 17.62C53.8106 18.372 54.0586 19.444 54.0586 20.836C54.0586 22.228 53.8106 23.3 53.3146 24.052C52.8266 24.804 52.1466 25.18 51.2746 25.18C50.4026 25.18 49.7186 24.804 49.2226 24.052C48.7346 23.3 48.4906 22.228 48.4906 20.836ZM52.8826 20.836C52.8826 20.38 52.8546 19.948 52.7986 19.54C52.7506 19.132 52.6626 18.776 52.5346 18.472C52.4146 18.168 52.2506 17.928 52.0426 17.752C51.8346 17.568 51.5786 17.476 51.2746 17.476C50.9706 17.476 50.7146 17.568 50.5066 17.752C50.2986 17.928 50.1306 18.168 50.0026 18.472C49.8826 18.776 49.7946 19.132 49.7386 19.54C49.6906 19.948 49.6666 20.38 49.6666 20.836C49.6666 21.292 49.6906 21.724 49.7386 22.132C49.7946 22.54 49.8826 22.896 50.0026 23.2C50.1306 23.504 50.2986 23.748 50.5066 23.932C50.7146 24.108 50.9706 24.196 51.2746 24.196C51.5786 24.196 51.8346 24.108 52.0426 23.932C52.2506 23.748 52.4146 23.504 52.5346 23.2C52.6626 22.896 52.7506 22.54 52.7986 22.132C52.8546 21.724 52.8826 21.292 52.8826 20.836ZM57.3761 24.184C58.0881 24.184 58.5961 24.044 58.9001 23.764C59.2121 23.484 59.3681 23.108 59.3681 22.636C59.3681 22.332 59.3041 22.076 59.1761 21.868C59.0481 21.66 58.8801 21.496 58.6721 21.376C58.4641 21.248 58.2201 21.16 57.9401 21.112C57.6681 21.056 57.3881 21.028 57.1001 21.028H56.8121V20.116H57.2081C57.4081 20.116 57.6121 20.096 57.8201 20.056C58.0361 20.016 58.2321 19.944 58.4081 19.84C58.5841 19.736 58.7281 19.596 58.8401 19.42C58.9521 19.236 59.0081 19.008 59.0081 18.736C59.0081 18.512 58.9681 18.32 58.8881 18.16C58.8081 18 58.7001 17.868 58.5641 17.764C58.4361 17.66 58.2841 17.588 58.1081 17.548C57.9401 17.5 57.7601 17.476 57.5681 17.476C57.1841 17.476 56.8561 17.532 56.5841 17.644C56.3201 17.756 56.0961 17.872 55.9121 17.992L55.4801 17.14C55.5761 17.076 55.6961 17.008 55.8401 16.936C55.9921 16.856 56.1601 16.784 56.3441 16.72C56.5281 16.656 56.7241 16.604 56.9321 16.564C57.1481 16.516 57.3721 16.492 57.6041 16.492C58.0441 16.492 58.4241 16.548 58.7441 16.66C59.0641 16.764 59.3281 16.916 59.5361 17.116C59.7441 17.308 59.9001 17.54 60.0041 17.812C60.1081 18.076 60.1601 18.364 60.1601 18.676C60.1601 19.108 60.0361 19.48 59.7881 19.792C59.5401 20.096 59.2401 20.328 58.8881 20.488C59.1041 20.552 59.3121 20.644 59.5121 20.764C59.7121 20.884 59.8841 21.036 60.0281 21.22C60.1801 21.404 60.3001 21.616 60.3881 21.856C60.4841 22.096 60.5321 22.364 60.5321 22.66C60.5321 23.02 60.4681 23.356 60.3401 23.668C60.2201 23.972 60.0281 24.236 59.7641 24.46C59.5081 24.684 59.1841 24.86 58.7921 24.988C58.4001 25.116 57.9361 25.18 57.4001 25.18C57.1921 25.18 56.9761 25.164 56.7521 25.132C56.5361 25.1 56.3321 25.06 56.1401 25.012C55.9481 24.964 55.7801 24.916 55.6361 24.868C55.4921 24.82 55.3881 24.78 55.3241 24.748L55.5401 23.776C55.6761 23.84 55.9001 23.924 56.2121 24.028C56.5321 24.132 56.9201 24.184 57.3761 24.184ZM67.0415 18.808C67.0415 19.096 66.9815 19.376 66.8615 19.648C66.7495 19.912 66.5975 20.176 66.4055 20.44C66.2135 20.696 65.9975 20.952 65.7575 21.208C65.5175 21.456 65.2775 21.7 65.0375 21.94C64.9015 22.076 64.7415 22.236 64.5575 22.42C64.3815 22.604 64.2135 22.796 64.0535 22.996C63.8935 23.196 63.7575 23.388 63.6455 23.572C63.5415 23.756 63.4895 23.916 63.4895 24.052H67.3175V25H62.2775C62.2695 24.952 62.2655 24.904 62.2655 24.856C62.2655 24.808 62.2655 24.764 62.2655 24.724C62.2655 24.348 62.3255 24 62.4455 23.68C62.5735 23.352 62.7375 23.044 62.9375 22.756C63.1375 22.468 63.3615 22.196 63.6095 21.94C63.8575 21.684 64.1015 21.436 64.3415 21.196C64.5415 21.004 64.7295 20.816 64.9055 20.632C65.0895 20.44 65.2495 20.252 65.3855 20.068C65.5295 19.876 65.6415 19.68 65.7215 19.48C65.8095 19.28 65.8535 19.068 65.8535 18.844C65.8535 18.604 65.8135 18.4 65.7335 18.232C65.6615 18.064 65.5615 17.924 65.4335 17.812C65.3055 17.7 65.1535 17.62 64.9775 17.572C64.8095 17.516 64.6295 17.488 64.4375 17.488C64.2055 17.488 63.9935 17.52 63.8015 17.584C63.6095 17.648 63.4375 17.724 63.2855 17.812C63.1335 17.892 63.0055 17.98 62.9015 18.076C62.7975 18.164 62.7175 18.232 62.6615 18.28L62.1095 17.488C62.1815 17.408 62.2895 17.312 62.4335 17.2C62.5775 17.08 62.7495 16.968 62.9495 16.864C63.1495 16.76 63.3735 16.672 63.6215 16.6C63.8695 16.528 64.1375 16.492 64.4255 16.492C65.2975 16.492 65.9495 16.696 66.3815 17.104C66.8215 17.504 67.0415 18.072 67.0415 18.808ZM70.0469 21.412C70.0469 20.388 69.8989 19.44 69.6029 18.568C69.3069 17.696 68.8709 16.888 68.2949 16.144L69.0869 15.604C69.7109 16.364 70.2109 17.24 70.5869 18.232C70.9709 19.216 71.1629 20.276 71.1629 21.412C71.1629 22.548 70.9709 23.612 70.5869 24.604C70.2109 25.588 69.7109 26.46 69.0869 27.22L68.2949 26.68C68.8709 25.936 69.3069 25.128 69.6029 24.256C69.8989 23.384 70.0469 22.436 70.0469 21.412ZM80.4829 18.808C80.4829 19.096 80.4229 19.376 80.3029 19.648C80.1909 19.912 80.0389 20.176 79.8469 20.44C79.6549 20.696 79.4389 20.952 79.1989 21.208C78.9589 21.456 78.7189 21.7 78.4789 21.94C78.3429 22.076 78.1829 22.236 77.9989 22.42C77.8229 22.604 77.6549 22.796 77.4949 22.996C77.3349 23.196 77.1989 23.388 77.0869 23.572C76.9829 23.756 76.9309 23.916 76.9309 24.052H80.7589V25H75.7189C75.7109 24.952 75.7069 24.904 75.7069 24.856C75.7069 24.808 75.7069 24.764 75.7069 24.724C75.7069 24.348 75.7669 24 75.8869 23.68C76.0149 23.352 76.1789 23.044 76.3789 22.756C76.5789 22.468 76.8029 22.196 77.0509 21.94C77.2989 21.684 77.5429 21.436 77.7829 21.196C77.9829 21.004 78.1709 20.816 78.3469 20.632C78.5309 20.44 78.6909 20.252 78.8269 20.068C78.9709 19.876 79.0829 19.68 79.1629 19.48C79.2509 19.28 79.2949 19.068 79.2949 18.844C79.2949 18.604 79.2549 18.4 79.1749 18.232C79.1029 18.064 79.0029 17.924 78.8749 17.812C78.7469 17.7 78.5949 17.62 78.4189 17.572C78.2509 17.516 78.0709 17.488 77.8789 17.488C77.6469 17.488 77.4349 17.52 77.2429 17.584C77.0509 17.648 76.8789 17.724 76.7269 17.812C76.5749 17.892 76.4469 17.98 76.3429 18.076C76.2389 18.164 76.1589 18.232 76.1029 18.28L75.5509 17.488C75.6229 17.408 75.7309 17.312 75.8749 17.2C76.0189 17.08 76.1909 16.968 76.3909 16.864C76.5909 16.76 76.8149 16.672 77.0629 16.6C77.3109 16.528 77.5789 16.492 77.8669 16.492C78.7389 16.492 79.3909 16.696 79.8229 17.104C80.2629 17.504 80.4829 18.072 80.4829 18.808ZM84.0403 19.888C85.2483 19.936 86.1323 20.2 86.6923 20.68C87.2603 21.16 87.5443 21.812 87.5443 22.636C87.5443 23.004 87.4803 23.344 87.3523 23.656C87.2323 23.968 87.0443 24.236 86.7883 24.46C86.5403 24.684 86.2243 24.86 85.8403 24.988C85.4563 25.116 85.0003 25.18 84.4723 25.18C84.2643 25.18 84.0523 25.164 83.8363 25.132C83.6203 25.1 83.4203 25.06 83.2363 25.012C83.0523 24.964 82.8883 24.916 82.7443 24.868C82.6003 24.82 82.4963 24.78 82.4323 24.748L82.6483 23.776C82.7843 23.84 83.0043 23.924 83.3083 24.028C83.6203 24.132 84.0003 24.184 84.4483 24.184C84.8083 24.184 85.1083 24.144 85.3483 24.064C85.5963 23.984 85.7963 23.876 85.9483 23.74C86.1003 23.604 86.2083 23.448 86.2723 23.272C86.3443 23.088 86.3803 22.896 86.3803 22.696C86.3803 22.392 86.3283 22.124 86.2243 21.892C86.1203 21.652 85.9363 21.452 85.6723 21.292C85.4083 21.132 85.0563 21.012 84.6163 20.932C84.1763 20.844 83.6203 20.8 82.9483 20.8C82.9963 20.408 83.0323 20.04 83.0563 19.696C83.0883 19.352 83.1163 19.016 83.1403 18.688C83.1643 18.36 83.1843 18.036 83.2003 17.716C83.2163 17.388 83.2323 17.044 83.2483 16.684H87.2563V17.632H84.2203C84.2123 17.752 84.2003 17.916 84.1843 18.124C84.1683 18.324 84.1523 18.536 84.1363 18.76C84.1203 18.976 84.1043 19.188 84.0883 19.396C84.0723 19.604 84.0563 19.768 84.0403 19.888ZM94.4378 20.008C94.4378 21.656 94.0258 22.904 93.2018 23.752C92.3858 24.592 91.1698 25.016 89.5538 25.024L89.5178 24.088C90.0218 24.088 90.4738 24.04 90.8738 23.944C91.2818 23.848 91.6378 23.696 91.9418 23.488C92.2458 23.272 92.4978 22.996 92.6978 22.66C92.9058 22.324 93.0578 21.912 93.1538 21.424C92.9458 21.52 92.7098 21.6 92.4458 21.664C92.1818 21.72 91.9098 21.748 91.6298 21.748C91.1578 21.748 90.7578 21.68 90.4298 21.544C90.1018 21.4 89.8338 21.212 89.6258 20.98C89.4178 20.74 89.2658 20.468 89.1698 20.164C89.0818 19.852 89.0378 19.528 89.0378 19.192C89.0378 18.896 89.0898 18.588 89.1938 18.268C89.2978 17.948 89.4538 17.656 89.6618 17.392C89.8778 17.128 90.1498 16.912 90.4778 16.744C90.8058 16.576 91.1938 16.492 91.6418 16.492C92.0978 16.492 92.4978 16.572 92.8418 16.732C93.1938 16.892 93.4858 17.124 93.7178 17.428C93.9578 17.732 94.1378 18.104 94.2578 18.544C94.3778 18.976 94.4378 19.464 94.4378 20.008ZM91.7498 20.836C92.0298 20.836 92.2938 20.812 92.5418 20.764C92.7898 20.708 93.0298 20.628 93.2618 20.524C93.2698 20.436 93.2738 20.352 93.2738 20.272C93.2738 20.184 93.2738 20.096 93.2738 20.008C93.2738 19.664 93.2498 19.336 93.2018 19.024C93.1538 18.704 93.0658 18.428 92.9378 18.196C92.8178 17.956 92.6538 17.768 92.4458 17.632C92.2378 17.488 91.9738 17.416 91.6538 17.416C91.3898 17.416 91.1658 17.472 90.9818 17.584C90.7978 17.696 90.6458 17.84 90.5258 18.016C90.4058 18.184 90.3178 18.372 90.2618 18.58C90.2138 18.78 90.1898 18.976 90.1898 19.168C90.1898 19.712 90.3178 20.128 90.5738 20.416C90.8378 20.696 91.2298 20.836 91.7498 20.836ZM97.1552 25C97.2032 24.36 97.3152 23.688 97.4912 22.984C97.6752 22.272 97.8992 21.584 98.1632 20.92C98.4272 20.248 98.7152 19.628 99.0272 19.06C99.3472 18.484 99.6592 18.016 99.9632 17.656H95.9192V16.684H101.211V17.608C100.947 17.912 100.655 18.332 100.335 18.868C100.015 19.396 99.7112 19.992 99.4232 20.656C99.1432 21.312 98.8992 22.016 98.6912 22.768C98.4912 23.512 98.3672 24.256 98.3192 25H97.1552ZM103.929 25C103.977 24.36 104.089 23.688 104.265 22.984C104.449 22.272 104.673 21.584 104.937 20.92C105.201 20.248 105.489 19.628 105.801 19.06C106.121 18.484 106.433 18.016 106.737 17.656H102.693V16.684H107.985V17.608C107.721 17.912 107.429 18.332 107.109 18.868C106.789 19.396 106.485 19.992 106.197 20.656C105.917 21.312 105.673 22.016 105.465 22.768C105.265 23.512 105.141 24.256 105.093 25H103.929ZM110.702 25C110.75 24.36 110.862 23.688 111.038 22.984C111.222 22.272 111.446 21.584 111.71 20.92C111.974 20.248 112.262 19.628 112.574 19.06C112.894 18.484 113.206 18.016 113.51 17.656H109.466V16.684H114.758V17.608C114.494 17.912 114.202 18.332 113.882 18.868C113.562 19.396 113.258 19.992 112.97 20.656C112.69 21.312 112.446 22.016 112.238 22.768C112.038 23.512 111.914 24.256 111.866 25H110.702ZM117.476 25C117.524 24.36 117.636 23.688 117.812 22.984C117.996 22.272 118.22 21.584 118.484 20.92C118.748 20.248 119.036 19.628 119.348 19.06C119.668 18.484 119.98 18.016 120.284 17.656H116.24V16.684H121.532V17.608C121.268 17.912 120.976 18.332 120.656 18.868C120.336 19.396 120.032 19.992 119.744 20.656C119.464 21.312 119.22 22.016 119.012 22.768C118.812 23.512 118.688 24.256 118.64 25H117.476ZM127.782 18.628C127.782 18.932 127.866 19.16 128.034 19.312C128.21 19.456 128.426 19.576 128.682 19.672C128.938 19.76 129.214 19.852 129.51 19.948C129.806 20.044 130.082 20.192 130.338 20.392C130.594 20.584 130.806 20.86 130.974 21.22C131.15 21.58 131.238 22.072 131.238 22.696C131.238 23.504 130.97 24.12 130.434 24.544C129.906 24.968 129.194 25.18 128.298 25.18C127.434 25.18 126.738 25.004 126.21 24.652C125.69 24.3 125.318 23.696 125.094 22.84L125.07 22.756L126.066 22.396L126.09 22.504C126.242 23.128 126.49 23.564 126.834 23.812C127.186 24.06 127.674 24.188 128.298 24.196C128.834 24.18 129.27 24.052 129.606 23.812C129.942 23.572 130.122 23.188 130.146 22.66C130.146 22.164 130.062 21.788 129.894 21.532C129.726 21.268 129.514 21.068 129.258 20.932C129.002 20.788 128.726 20.68 128.43 20.608C128.134 20.528 127.858 20.42 127.602 20.284C127.346 20.148 127.134 19.96 126.966 19.72C126.798 19.472 126.714 19.108 126.714 18.628H127.782ZM135.048 16.492C135.144 16.492 135.268 16.504 135.42 16.528C135.58 16.544 135.74 16.564 135.9 16.588C136.068 16.612 136.22 16.636 136.356 16.66C136.492 16.676 136.584 16.684 136.632 16.684C136.96 16.684 137.3 16.62 137.652 16.492L137.988 17.32C137.692 17.512 137.256 17.608 136.68 17.608C136.536 17.608 136.38 17.6 136.212 17.584C136.052 17.56 135.892 17.54 135.732 17.524C135.58 17.5 135.432 17.48 135.288 17.464C135.144 17.44 135.024 17.428 134.928 17.428C134.672 17.428 134.452 17.456 134.268 17.512C134.084 17.56 133.932 17.652 133.812 17.788C133.692 17.916 133.604 18.096 133.548 18.328C133.492 18.552 133.464 18.84 133.464 19.192V19.564C133.976 19.26 134.592 19.108 135.312 19.108C135.736 19.108 136.124 19.168 136.476 19.288C136.836 19.4 137.148 19.572 137.412 19.804C137.676 20.036 137.88 20.352 138.024 20.752C138.176 21.152 138.252 21.62 138.252 22.156C138.252 22.612 138.172 23.06 138.012 23.5C137.86 23.94 137.652 24.276 137.388 24.508C137.124 24.732 136.816 24.9 136.464 25.012C136.112 25.124 135.74 25.18 135.348 25.18C134.948 25.18 134.572 25.124 134.22 25.012C133.868 24.9 133.56 24.728 133.296 24.496C133.032 24.264 132.824 23.972 132.672 23.62C132.52 23.268 132.444 22.852 132.444 22.372V19.192C132.444 18.2 132.652 17.504 133.068 17.104C133.492 16.696 134.152 16.492 135.048 16.492ZM133.464 22.384C133.464 23.024 133.64 23.496 133.992 23.8C134.344 24.096 134.796 24.244 135.348 24.244C135.9 24.244 136.352 24.052 136.704 23.668C137.056 23.276 137.232 22.772 137.232 22.156C137.232 21.436 137.048 20.896 136.68 20.536C136.32 20.176 135.836 19.996 135.228 19.996C134.94 19.996 134.684 20.02 134.46 20.068C134.244 20.108 134.064 20.16 133.92 20.224C133.744 20.288 133.592 20.364 133.464 20.452V22.384ZM145.049 16.78C145.049 17.116 145.017 17.44 144.953 17.752C144.897 18.056 144.837 18.372 144.773 18.7C145.061 18.54 145.345 18.384 145.625 18.232C145.905 18.08 146.209 17.948 146.537 17.836L146.609 17.812L146.945 18.82L146.849 18.856C146.529 18.976 146.209 19.056 145.889 19.096C145.569 19.128 145.241 19.156 144.905 19.18C145.169 19.404 145.417 19.624 145.649 19.84C145.881 20.048 146.097 20.292 146.297 20.572L146.357 20.656L145.481 21.268L145.433 21.196C145.241 20.908 145.073 20.624 144.929 20.344C144.793 20.056 144.653 19.76 144.509 19.456C144.365 19.76 144.221 20.056 144.077 20.344C143.941 20.624 143.777 20.908 143.585 21.196L143.537 21.268L142.661 20.656L142.721 20.572C142.921 20.292 143.137 20.048 143.369 19.84C143.601 19.624 143.849 19.404 144.113 19.18C143.777 19.156 143.449 19.128 143.129 19.096C142.809 19.056 142.489 18.976 142.169 18.856L142.073 18.82L142.409 17.812L142.481 17.836C142.809 17.948 143.113 18.08 143.393 18.232C143.673 18.384 143.957 18.54 144.245 18.7C144.181 18.372 144.117 18.056 144.053 17.752C143.997 17.44 143.969 17.116 143.969 16.78V16.684H145.049V16.78ZM147.995 20.836C147.995 19.444 148.239 18.372 148.727 17.62C149.223 16.868 149.907 16.492 150.779 16.492C151.651 16.492 152.331 16.868 152.819 17.62C153.315 18.372 153.563 19.444 153.563 20.836C153.563 22.228 153.315 23.3 152.819 24.052C152.331 24.804 151.651 25.18 150.779 25.18C149.907 25.18 149.223 24.804 148.727 24.052C148.239 23.3 147.995 22.228 147.995 20.836ZM152.387 20.836C152.387 20.38 152.359 19.948 152.303 19.54C152.255 19.132 152.167 18.776 152.039 18.472C151.919 18.168 151.755 17.928 151.547 17.752C151.339 17.568 151.083 17.476 150.779 17.476C150.475 17.476 150.219 17.568 150.011 17.752C149.803 17.928 149.635 18.168 149.507 18.472C149.387 18.776 149.299 19.132 149.243 19.54C149.195 19.948 149.171 20.38 149.171 20.836C149.171 21.292 149.195 21.724 149.243 22.132C149.299 22.54 149.387 22.896 149.507 23.2C149.635 23.504 149.803 23.748 150.011 23.932C150.219 24.108 150.475 24.196 150.779 24.196C151.083 24.196 151.339 24.108 151.547 23.932C151.755 23.748 151.919 23.504 152.039 23.2C152.167 22.896 152.255 22.54 152.303 22.132C152.359 21.724 152.387 21.292 152.387 20.836ZM156.124 25C156.172 24.36 156.284 23.688 156.46 22.984C156.644 22.272 156.868 21.584 157.132 20.92C157.396 20.248 157.684 19.628 157.996 19.06C158.316 18.484 158.628 18.016 158.932 17.656H154.888V16.684H160.18V17.608C159.916 17.912 159.624 18.332 159.304 18.868C158.984 19.396 158.68 19.992 158.392 20.656C158.112 21.312 157.868 22.016 157.66 22.768C157.46 23.512 157.336 24.256 157.288 25H156.124ZM161.541 20.836C161.541 19.444 161.785 18.372 162.273 17.62C162.769 16.868 163.453 16.492 164.325 16.492C165.197 16.492 165.877 16.868 166.365 17.62C166.861 18.372 167.109 19.444 167.109 20.836C167.109 22.228 166.861 23.3 166.365 24.052C165.877 24.804 165.197 25.18 164.325 25.18C163.453 25.18 162.769 24.804 162.273 24.052C161.785 23.3 161.541 22.228 161.541 20.836ZM165.933 20.836C165.933 20.38 165.905 19.948 165.849 19.54C165.801 19.132 165.713 18.776 165.585 18.472C165.465 18.168 165.301 17.928 165.093 17.752C164.885 17.568 164.629 17.476 164.325 17.476C164.021 17.476 163.765 17.568 163.557 17.752C163.349 17.928 163.181 18.168 163.053 18.472C162.933 18.776 162.845 19.132 162.789 19.54C162.741 19.948 162.717 20.38 162.717 20.836C162.717 21.292 162.741 21.724 162.789 22.132C162.845 22.54 162.933 22.896 163.053 23.2C163.181 23.504 163.349 23.748 163.557 23.932C163.765 24.108 164.021 24.196 164.325 24.196C164.629 24.196 164.885 24.108 165.093 23.932C165.301 23.748 165.465 23.504 165.585 23.2C165.713 22.896 165.801 22.54 165.849 22.132C165.905 21.724 165.933 21.292 165.933 20.836ZM169.671 25C169.719 24.36 169.831 23.688 170.007 22.984C170.191 22.272 170.415 21.584 170.679 20.92C170.943 20.248 171.231 19.628 171.543 19.06C171.863 18.484 172.175 18.016 172.479 17.656H168.435V16.684H173.727V17.608C173.463 17.912 173.171 18.332 172.851 18.868C172.531 19.396 172.227 19.992 171.939 20.656C171.659 21.312 171.415 22.016 171.207 22.768C171.007 23.512 170.883 24.256 170.835 25H169.671Z" fill="white"/>
</g>
</g>
<defs>
<filter id="filter0_b_11231_143881" x="-12" y="-12" width="214" height="66" filterUnits="userSpaceOnUse" color-interpolation-filters="sRGB">
<feFlood flood-opacity="0" result="BackgroundImageFix"/>
<feGaussianBlur in="BackgroundImageFix" stdDeviation="6"/>
<feComposite in2="SourceAlpha" operator="in" result="effect1_backgroundBlur_11231_143881"/>
<feBlend mode="normal" in="SourceGraphic" in2="effect1_backgroundBlur_11231_143881" result="shape"/>
</filter>
<filter id="filter1_b_11231_143881" x="-12" y="-12" width="214" height="66" filterUnits="userSpaceOnUse" color-interpolation-filters="sRGB">
<feFlood flood-opacity="0" result="BackgroundImageFix"/>
<feGaussianBlur in="BackgroundImageFix" stdDeviation="6"/>
<feComposite in2="SourceAlpha" operator="in" result="effect1_backgroundBlur_11231_143881"/>
<feBlend mode="normal" in="SourceGraphic" in2="effect1_backgroundBlur_11231_143881" result="shape"/>
</filter>
</defs>
</svg>
